<?xml version="1.0" standalone="no"?>
<!DOCTYPE svg PUBLIC "-//W3C//DTD SVG 20010904//EN"
 "http://www.w3.org/TR/2001/REC-SVG-20010904/DTD/svg10.dtd">
<svg version="1.0" xmlns="http://www.w3.org/2000/svg"
 width="1048.000000pt" height="1048.000000pt" viewBox="0 0 1048.000000 1048.000000"
 preserveAspectRatio="xMidYMid meet">
<metadata>
Created by potrace 1.14, written by Peter Selinger 2001-2017
</metadata>
<g transform="translate(0.000000,1048.000000) scale(0.100000,-0.100000)"
fill="#000000" stroke="none">
<path d="M7850 10470 c0 -7 -3 -11 -6 -7 -20 19 -190 -136 -245 -223 -43 -66
-102 -189 -102 -210 0 -8 -3 -19 -7 -25 -4 -5 -11 -28 -15 -50 -5 -22 -9 -42
-10 -45 -10 -38 -30 -242 -26 -275 1 -5 3 -32 5 -60 3 -27 7 -68 11 -90 3 -22
8 -53 10 -70 7 -48 15 -89 22 -105 8 -19 10 -29 17 -60 10 -44 51 -155 58
-158 5 -2 8 -9 8 -16 0 -17 85 -192 111 -228 11 -15 17 -28 13 -28 -3 0 -2 -6
4 -13 6 -7 24 -37 40 -67 16 -30 40 -75 54 -100 14 -25 47 -85 73 -135 26 -49
60 -112 75 -140 15 -27 47 -86 70 -130 24 -44 52 -96 63 -115 11 -19 45 -82
75 -140 30 -58 59 -111 65 -117 5 -7 7 -13 3 -13 -4 0 -77 37 -164 81 -248
129 -306 160 -319 171 -7 6 -13 7 -13 3 0 -4 -6 -3 -12 2 -7 6 -80 45 -163 88
-82 43 -178 93 -212 111 -35 19 -63 30 -63 26 0 -4 -4 -2 -8 4 -4 6 -63 39
-132 74 -69 35 -138 73 -155 84 -16 12 -31 20 -33 18 -2 -2 -118 55 -179 89
-58 33 -204 104 -238 116 -16 6 -39 14 -50 19 -29 10 -45 14 -91 18 -23 2 -46
6 -50 8 -15 8 -120 -1 -189 -16 -11 -2 -37 -11 -57 -20 -28 -12 -37 -13 -41
-3 -3 8 -13 5 -35 -10 -17 -13 -35 -23 -40 -23 -5 0 -17 -10 -29 -22 -11 -13
-31 -32 -45 -43 -34 -26 -98 -107 -135 -170 -28 -48 -80 -168 -88 -204 -2 -9
-12 -50 -21 -91 -26 -112 -25 -379 2 -501 3 -13 7 -35 10 -49 3 -14 7 -32 9
-40 2 -8 4 -15 5 -15 1 0 3 -8 5 -17 4 -23 25 -89 35 -113 4 -11 16 -40 25
-64 17 -46 86 -192 95 -201 3 -3 17 -30 33 -60 15 -30 45 -88 67 -127 22 -40
40 -75 40 -78 0 -5 -66 -34 -77 -34 -3 1 -9 -3 -12 -8 -3 -4 -28 -19 -56 -33
-27 -14 -52 -27 -55 -30 -3 -3 -17 -11 -32 -19 -16 -8 -28 -18 -28 -23 0 -5
-4 -7 -9 -4 -4 3 -16 -3 -26 -14 -10 -11 -22 -20 -27 -20 -13 0 -142 -97 -226
-169 -116 -100 -257 -246 -333 -346 -13 -16 -26 -32 -29 -35 -3 -3 -9 -13 -15
-22 -5 -9 -37 -56 -70 -105 -121 -179 -279 -534 -311 -696 -2 -10 -6 -27 -9
-37 -3 -10 -8 -31 -10 -46 -2 -16 -7 -39 -10 -51 -17 -74 -20 -91 -30 -208 -9
-101 -10 -103 -18 -111 -4 -4 -7 4 -8 17 -2 43 -6 93 -14 159 -11 98 -13 113
-19 143 -6 27 -9 45 -26 127 -22 114 -96 350 -140 445 -81 177 -137 282 -198
373 -23 35 -42 68 -42 73 0 5 -3 9 -7 9 -5 0 -19 17 -33 38 -62 93 -180 225
-299 332 -40 36 -85 76 -100 90 -15 14 -30 26 -34 27 -4 2 -31 20 -60 41 -200
147 -511 283 -722 316 -16 2 -30 5 -30 6 0 1 -11 3 -25 5 -14 1 -45 6 -70 10
-96 15 -446 9 -508 -9 -9 -3 -35 -7 -56 -11 -55 -8 -194 -44 -233 -60 -18 -8
-33 -12 -33 -10 0 5 -113 -43 -190 -80 -97 -47 -288 -165 -320 -196 -8 -9 -22
-20 -32 -25 -49 -27 -236 -206 -314 -299 -21 -27 -43 -53 -49 -59 -20 -22 -95
-125 -95 -131 0 -3 -9 -15 -20 -27 -11 -12 -26 -34 -32 -50 -7 -15 -16 -28
-19 -28 -4 0 -10 -8 -13 -17 -3 -10 -12 -27 -19 -38 -18 -29 -47 -83 -49 -92
-1 -5 -14 -30 -30 -56 -15 -26 -28 -49 -28 -51 0 -2 -8 -21 -17 -42 -9 -22
-16 -42 -15 -46 1 -5 -2 -8 -8 -8 -6 0 -9 -3 -9 -7 4 -22 -3 -43 -17 -57 -8
-9 -13 -16 -10 -16 3 0 -6 -33 -20 -72 -24 -72 -71 -237 -79 -281 -3 -12 -7
-33 -10 -47 -13 -69 -22 -121 -30 -195 -3 -27 -9 -63 -12 -80 -4 -16 -7 -1147
-8 -2512 0 -2216 1 -2483 15 -2484 8 0 920 0 2025 1 1818 0 2279 3 2340 13 11
2 47 7 80 12 59 7 74 10 118 20 12 3 34 7 49 10 15 2 31 6 36 9 5 3 24 8 43
11 39 6 291 91 329 110 14 7 70 34 125 61 165 79 411 243 516 344 131 125 159
153 204 204 28 31 55 62 60 69 22 25 110 142 120 158 14 23 63 98 91 140 13
19 24 40 24 46 0 7 6 18 13 25 21 23 47 75 40 82 -3 3 -1 6 5 6 7 0 12 4 12
10 0 5 13 37 29 72 48 105 125 318 114 318 -3 0 0 7 7 15 7 8 10 15 7 15 -3 0
1 24 9 53 19 67 21 77 28 123 4 22 10 64 15 94 5 30 10 62 10 70 0 8 4 49 7
90 4 41 8 702 8 1468 0 977 3 1389 10 1379 6 -9 19 -30 29 -47 l17 -32 34 26
c19 14 38 26 43 26 5 0 15 8 24 18 8 9 31 31 50 47 47 41 153 193 164 235 1 3
10 23 19 44 15 34 45 137 62 216 14 63 12 309 -3 400 -20 126 -19 123 -26 140
-4 8 -8 26 -11 40 -7 41 -56 183 -72 208 -8 12 -12 22 -9 22 5 0 -89 185 -132
260 -11 19 -35 64 -53 100 -19 36 -40 73 -48 83 -9 9 -12 17 -8 17 3 0 -5 18
-19 40 -14 22 -25 42 -25 44 0 3 -10 22 -22 43 -25 41 -24 39 -26 100 -2 37
-5 42 -29 45 -21 2 -33 16 -62 73 -20 39 -38 72 -41 75 -3 3 -16 25 -29 50
-39 74 -123 232 -147 275 -12 22 -41 76 -64 120 -23 44 -51 95 -63 114 l-20
33 99 -52 c54 -29 104 -55 109 -58 6 -4 16 -7 23 -8 7 -1 19 -8 27 -14 8 -7
67 -39 132 -72 216 -110 278 -143 281 -150 2 -5 10 -8 19 -8 8 0 28 -9 44 -21
16 -11 29 -17 29 -13 0 3 6 2 13 -4 6 -6 53 -31 102 -57 50 -26 96 -52 103
-57 6 -6 12 -8 12 -5 0 3 26 -9 58 -26 31 -18 80 -43 107 -57 28 -14 53 -29
57 -35 4 -5 8 -6 8 -1 0 5 6 4 13 -2 6 -5 75 -42 152 -82 321 -166 431 -223
443 -233 6 -5 12 -6 12 -1 0 5 4 5 8 -1 12 -17 132 -76 196 -97 37 -12 95 -21
146 -23 47 -1 88 -3 92 -4 4 0 10 -11 14 -23 9 -30 26 -51 33 -41 3 4 31 25
62 46 32 21 77 60 101 86 50 54 128 169 128 188 0 7 4 13 9 13 5 0 13 14 16
32 4 18 11 39 16 48 7 15 19 48 18 53 0 1 5 15 11 31 6 16 13 44 16 64 3 19 8
44 11 56 3 11 7 86 8 166 4 143 -4 212 -39 375 -6 27 -38 132 -45 150 -5 11
-17 40 -26 65 -26 70 -251 500 -268 511 -5 3 -9 10 -9 15 0 5 -10 27 -21 49
-12 22 -22 42 -22 45 -1 3 -11 21 -23 40 -12 19 -22 40 -22 47 0 6 -3 13 -7
15 -5 2 -16 19 -27 38 -10 19 -41 78 -68 130 -59 111 -91 169 -125 228 -14 23
-21 42 -16 42 4 0 3 4 -3 8 -6 4 -24 32 -39 62 -16 30 -37 67 -47 83 -11 15
-16 27 -12 27 3 0 2 6 -4 13 -12 14 -70 118 -108 192 -14 28 -35 68 -47 90
-13 22 -43 78 -69 125 -25 47 -57 105 -70 130 -14 25 -48 88 -76 140 -27 52
-61 115 -75 140 -13 25 -46 86 -72 135 -54 101 -55 104 -55 85z m-3246 -5631
c-3 -43 -11 -46 -12 -4 -1 19 2 35 6 35 5 0 7 -14 6 -31z m-7 -561 c-3 -8 -6
-5 -6 6 -1 11 2 17 5 13 3 -3 4 -12 1 -19z m8 -387 c3 -5 2 -12 -3 -15 -5 -3
-9 1 -9 9 0 17 3 19 12 6z m0 -640 c3 -5 2 -12 -3 -15 -5 -3 -9 1 -9 9 0 17 3
19 12 6z m0 -80 c3 -5 2 -12 -3 -15 -5 -3 -9 1 -9 9 0 17 3 19 12 6z"/>
</g>
</svg>
