<svg width="150" height="75" viewBox="0 0 1117 337" fill="none" xmlns="http://www.w3.org/2000/svg">
<g filter="url(#filter0_d_9_89)">
<path fill-rule="evenodd" clip-rule="evenodd" d="M461.737 185.994C461.72 158.227 442.849 135.733 419.588 135.754L419.619 186.031L461.737 185.994ZM461.768 236.272L461.799 286.55L419.681 286.587L419.65 236.309L419.619 186.031L461.737 185.994L461.768 236.272L461.768 236.272Z" fill="#FA9999"/>
<path d="M283.539 157.436C281.922 153.325 283.767 148.299 287.66 146.21L291.807 143.986C295.7 141.898 300.168 143.538 301.786 147.65L350.611 271.761C353.018 277.879 350.272 285.359 344.478 288.467V288.467C340.195 290.764 335.281 288.96 333.502 284.437L283.539 157.436Z" fill="#FA9999"/>
<path fill-rule="evenodd" clip-rule="evenodd" d="M256.301 191.899L256.163 242.177L256.163 242.177L256.025 292.454C279.806 292.543 299.146 270.105 299.222 242.337L299.222 242.337L299.222 242.337L299.36 192.06L256.301 191.899ZM256.301 191.899C256.377 164.132 275.717 141.694 299.498 141.782L299.36 192.06L256.301 191.899Z" fill="#FA9999"/>
<path fill-rule="evenodd" clip-rule="evenodd" d="M378.022 240.829C377.946 268.597 358.606 291.035 334.824 290.946L334.824 290.946L334.962 240.668L378.022 240.829ZM335.1 190.391C335.176 162.623 354.516 140.185 378.297 140.274L378.159 190.552L378.022 240.829L334.962 240.668L335.1 190.391L335.1 190.391Z" fill="#FA9999"/>
<path d="M500.812 158.43C500.812 150 507.646 143.167 516.076 143.167V143.167C532.935 143.167 546.603 156.834 546.603 173.694V261.515C546.603 278.623 532.734 292.492 515.627 292.492V292.492C507.445 292.492 500.812 285.859 500.812 277.677V158.43Z" fill="#FDF28C"/>
<path d="M505.683 159.167C505.683 150.33 512.847 143.167 521.683 143.167H603.341C608.864 143.167 613.341 147.644 613.341 153.167V173.389C613.341 178.912 608.864 183.389 603.341 183.389H520.683C512.399 183.389 505.683 176.673 505.683 168.389V159.167Z" fill="#FDF28C"/>
<path d="M505.683 222.517C505.683 213.68 512.847 206.517 521.683 206.517H584.342C589.865 206.517 594.342 210.994 594.342 216.517V228.694C594.342 234.217 589.865 238.694 584.342 238.694H520.683C512.399 238.694 505.683 231.979 505.683 223.694V222.517Z" fill="#FDF28C"/>
<ellipse cx="871.037" cy="218.583" rx="73.0708" ry="75.4167" fill="#FDF28C"/>
<ellipse cx="871.037" cy="218.583" rx="73.0708" ry="75.4167" fill="#FDF28C"/>
<path d="M897.817 219.84C897.817 234.417 885.939 246.239 871.281 246.239C856.623 246.239 844.745 234.417 844.745 219.84C844.745 205.263 856.623 193.442 871.281 193.442C885.939 193.442 897.817 205.263 897.817 219.84Z" stroke="#FDF28C"/>
<ellipse cx="705.41" cy="215.064" rx="73.0708" ry="75.4167" fill="#FDF28C"/>
<ellipse cx="705.41" cy="215.064" rx="73.0708" ry="75.4167" fill="#FDF28C"/>
<path d="M732.19 216.321C732.19 230.898 720.312 242.719 705.654 242.719C690.996 242.719 679.118 230.898 679.118 216.321C679.118 201.744 690.996 189.922 705.654 189.922C720.312 189.922 732.19 201.744 732.19 216.321Z" stroke="#FDF28C"/>
<path fill-rule="evenodd" clip-rule="evenodd" d="M1055.7 225.99L1055.73 169.495L1111.97 169.545L1055.73 169.495C1055.75 138.294 1080.94 113.022 1112 113.049L1111.97 169.545L1111.97 169.545L1111.93 226.04L1111.9 282.535L1055.66 282.485L1055.7 225.99Z" fill="#FDF28C"/>
<ellipse cx="1032.52" cy="221.147" rx="68.9301" ry="71.3944" fill="#FDF28C"/>
<ellipse cx="1032.52" cy="221.147" rx="68.9301" ry="71.3944" fill="#FDF28C"/>
<path d="M1057.76 222.337C1057.76 236.123 1046.56 247.301 1032.75 247.301C1018.94 247.301 1007.75 236.123 1007.75 222.337C1007.75 208.55 1018.94 197.372 1032.75 197.372C1046.56 197.372 1057.76 208.55 1057.76 222.337Z" stroke="#FDF28C"/>
<g style="mix-blend-mode:darken" filter="url(#filter1_d_9_89)">
<path fill-rule="evenodd" clip-rule="evenodd" d="M224.282 73.066C179.939 73.1005 144.018 111.105 144.051 157.952L224.341 157.89L224.282 73.066ZM144.169 327.6C188.512 327.566 224.433 289.561 224.4 242.714L224.341 157.89L144.051 157.952L144.11 242.776L144.169 327.6Z" fill="#FF0000"/>
<path fill-rule="evenodd" clip-rule="evenodd" d="M143.941 242.683L143.889 157.859L143.889 157.859C143.861 111.012 112.758 73.0629 74.4194 73.0973L74.4705 157.921L143.889 157.859L74.4704 157.921L74.5215 242.745L74.5214 242.745L74.5725 327.569L143.992 327.507L143.94 242.683L143.941 242.683Z" fill="#FFF069"/>
<path fill-rule="evenodd" clip-rule="evenodd" d="M5.05106 157.984C5.02284 111.137 36.0799 73.1318 74.419 73.0973L74.4192 73.0973L74.4703 157.921L74.4701 157.921L74.5212 242.745L74.5213 242.745L74.5724 327.569L5.1533 327.631L5.10222 242.808L5.05106 157.984Z" fill="#FFE600"/>
</g>
<g filter="url(#filter2_d_9_89)">
<rect width="25.1507" height="86.4873" rx="12" transform="matrix(-0.346314 0.960952 -0.863857 -0.46011 293.253 66.4798)" fill="#FF0000"/>
</g>
<path fill-rule="evenodd" clip-rule="evenodd" d="M245.209 77.425C251.261 91.6931 246.581 107.814 234.755 113.433L234.755 113.433L223.796 87.5979L245.209 77.425ZM212.836 61.7632C206.784 47.4952 211.464 31.374 223.29 25.7557L223.29 25.7557L234.249 51.5903L234.25 51.5903L245.209 77.425L223.795 87.5978L212.836 61.7632L212.836 61.7632Z" fill="#FFE600"/>
<path fill-rule="evenodd" clip-rule="evenodd" d="M294.299 53.4411L283.339 27.6065L283.339 27.6066L272.38 1.77199C260.554 7.39035 255.873 23.5114 261.926 37.7795L261.926 37.7793L272.885 63.6139L272.885 63.614L272.885 63.614L283.844 89.4486C295.671 83.8303 300.351 67.7093 294.298 53.4412L294.299 53.4411Z" fill="#FFE600"/>
</g>
<defs>
<filter id="filter0_d_9_89" x="0.0510254" y="0.771973" width="1116.95" height="335.859" filterUnits="userSpaceOnUse" color-interpolation-filters="sRGB">
<feFlood flood-opacity="0" result="BackgroundImageFix"/>
<feColorMatrix in="SourceAlpha" type="matrix" values="0 0 0 0 0 0 0 0 0 0 0 0 0 0 0 0 0 0 127 0" result="hardAlpha"/>
<feOffset dy="4"/>
<feGaussianBlur stdDeviation="2.5"/>
<feComposite in2="hardAlpha" operator="out"/>
<feColorMatrix type="matrix" values="0 0 0 0 0 0 0 0 0 0 0 0 0 0 0 0 0 0 0.25 0"/>
<feBlend mode="normal" in2="BackgroundImageFix" result="effect1_dropShadow_9_89"/>
<feBlend mode="normal" in="SourceGraphic" in2="effect1_dropShadow_9_89" result="shape"/>
</filter>
<filter id="filter1_d_9_89" x="0.0510254" y="72.066" width="229.349" height="264.565" filterUnits="userSpaceOnUse" color-interpolation-filters="sRGB">
<feFlood flood-opacity="0" result="BackgroundImageFix"/>
<feColorMatrix in="SourceAlpha" type="matrix" values="0 0 0 0 0 0 0 0 0 0 0 0 0 0 0 0 0 0 127 0" result="hardAlpha"/>
<feOffset dy="4"/>
<feGaussianBlur stdDeviation="2.5"/>
<feComposite in2="hardAlpha" operator="out"/>
<feColorMatrix type="matrix" values="0 0 0 0 0.00500005 0 0 0 0 0 0 0 0 0 0 0 0 0 0.25 0"/>
<feBlend mode="normal" in2="BackgroundImageFix" result="effect1_dropShadow_9_89"/>
<feBlend mode="normal" in="SourceGraphic" in2="effect1_dropShadow_9_89" result="shape"/>
</filter>
<filter id="filter2_d_9_89" x="209.181" y="30.9508" width="84.7209" height="63.4329" filterUnits="userSpaceOnUse" color-interpolation-filters="sRGB">
<feFlood flood-opacity="0" result="BackgroundImageFix"/>
<feColorMatrix in="SourceAlpha" type="matrix" values="0 0 0 0 0 0 0 0 0 0 0 0 0 0 0 0 0 0 127 0" result="hardAlpha"/>
<feOffset dy="4"/>
<feGaussianBlur stdDeviation="2"/>
<feComposite in2="hardAlpha" operator="out"/>
<feColorMatrix type="matrix" values="0 0 0 0 0 0 0 0 0 0 0 0 0 0 0 0 0 0 0.25 0"/>
<feBlend mode="normal" in2="BackgroundImageFix" result="effect1_dropShadow_9_89"/>
<feBlend mode="normal" in="SourceGraphic" in2="effect1_dropShadow_9_89" result="shape"/>
</filter>
</defs>
</svg>
